<?xml version="1.0" encoding="utf-8"?>
<!-- Generator: Adobe Illustrator 28.0.0, SVG Export Plug-In . SVG Version: 6.00 Build 0)  -->
<svg version="1.1" id="Capa_1" xmlns="http://www.w3.org/2000/svg" xmlns:xlink="http://www.w3.org/1999/xlink" x="0px" y="0px"
	 viewBox="0 0 463.55 319.89" style="enable-background:new 0 0 463.55 319.89;" xml:space="preserve">
<style type="text/css">
	.st0{fill:#010202;}
	.st1{fill:#FFFFFF;stroke:#000000;stroke-width:0.9851;stroke-miterlimit:10;}
	.st2{fill:#FFFFFF;stroke:#000000;stroke-width:0.1772;stroke-miterlimit:10;}
	.st3{fill:none;}
	.st4{fill:#BF0D10;}
	.st5{fill:#FFFFFF;}
	.st6{fill:#4786A1;}
</style>
<path class="st0" d="M433.78,16.09H33.7c-7.15,0-12.95,5.8-12.95,12.96v263.18c0,7.15,5.8,12.95,12.95,12.95h400.08
	c7.15,0,12.95-5.8,12.95-12.95V29.05C446.73,21.89,440.93,16.09,433.78,16.09z M357,259.64c0,15.36-12.45,27.82-27.81,27.82H130.1
	c-15.37,0-27.82-12.46-27.82-27.82V60.55c0-15.37,12.45-27.82,27.82-27.82h199.09c15.36,0,27.81,12.45,27.81,27.82V259.64z"/>
<path class="st1" d="M357,60.55v199.09c0,15.36-12.45,27.82-27.81,27.82H130.1c-15.37,0-27.82-12.46-27.82-27.82V60.55
	c0-15.37,12.45-27.82,27.82-27.82h199.09C344.55,32.73,357,45.18,357,60.55z"/>
<path class="st2" d="M69.64,93.64H50c-7.23,0-13.09-5.86-13.09-13.09V60.91c0-7.23,5.86-13.09,13.09-13.09h19.64
	c7.23,0,13.09,5.86,13.09,13.09v19.64C82.73,87.78,76.87,93.64,69.64,93.64z"/>
<path class="st2" d="M69.64,149.91H50c-7.23,0-13.09-5.86-13.09-13.09v-19.64c0-7.23,5.86-13.09,13.09-13.09h19.64
	c7.23,0,13.09,5.86,13.09,13.09v19.64C82.73,144.05,76.87,149.91,69.64,149.91z"/>
<path class="st2" d="M69.64,209.64H50c-7.23,0-13.09-5.86-13.09-13.09v-19.64c0-7.23,5.86-13.09,13.09-13.09h19.64
	c7.23,0,13.09,5.86,13.09,13.09v19.64C82.73,203.78,76.87,209.64,69.64,209.64z"/>
<path class="st2" d="M69.64,269.64H50c-7.23,0-13.09-5.86-13.09-13.09v-19.64c0-7.23,5.86-13.09,13.09-13.09h19.64
	c7.23,0,13.09,5.86,13.09,13.09v19.64C82.73,263.78,76.87,269.64,69.64,269.64z"/>
<path class="st2" d="M409.64,93.64H390c-7.23,0-13.09-5.86-13.09-13.09V60.91c0-7.23,5.86-13.09,13.09-13.09h19.64
	c7.23,0,13.09,5.86,13.09,13.09v19.64C422.73,87.78,416.87,93.64,409.64,93.64z"/>
<path class="st2" d="M409.64,149.91H390c-7.23,0-13.09-5.86-13.09-13.09v-19.64c0-7.23,5.86-13.09,13.09-13.09h19.64
	c7.23,0,13.09,5.86,13.09,13.09v19.64C422.73,144.05,416.87,149.91,409.64,149.91z"/>
<path class="st2" d="M409.64,209.64H390c-7.23,0-13.09-5.86-13.09-13.09v-19.64c0-7.23,5.86-13.09,13.09-13.09h19.64
	c7.23,0,13.09,5.86,13.09,13.09v19.64C422.73,203.78,416.87,209.64,409.64,209.64z"/>
<path class="st2" d="M409.64,269.64H390c-7.23,0-13.09-5.86-13.09-13.09v-19.64c0-7.23,5.86-13.09,13.09-13.09h19.64
	c7.23,0,13.09,5.86,13.09,13.09v19.64C422.73,263.78,416.87,269.64,409.64,269.64z"/>
<g>
	<rect x="133.27" y="126.94" class="st3" width="217.09" height="75.82"/>
	<path class="st4" d="M181.87,185.89v7.83H136.6v-6.12l25.65-24.75c6.66-6.48,7.92-10.44,7.92-14.4c0-6.48-4.59-10.44-13.41-10.44
		c-6.75,0-12.24,2.16-16.11,6.84l-6.12-5.31c4.86-6.03,13.23-9.54,23.04-9.54c13.14,0,21.6,6.75,21.6,17.55
		c0,6.12-1.8,11.61-10.35,19.8l-19.26,18.54H181.87z"/>
	<path class="st4" d="M188.98,162.23c0-20.52,10.98-32.22,25.74-32.22c14.67,0,25.65,11.7,25.65,32.22
		c0,20.52-10.98,32.22-25.65,32.22C199.96,194.44,188.98,182.74,188.98,162.23z M231.37,162.23c0-16.11-6.84-24.21-16.65-24.21
		c-9.9,0-16.74,8.1-16.74,24.21c0,16.11,6.84,24.21,16.74,24.21C224.53,186.43,231.37,178.33,231.37,162.23z"/>
	<path class="st4" d="M293.02,185.89v7.83h-45.27v-6.12l25.65-24.75c6.66-6.48,7.92-10.44,7.92-14.4c0-6.48-4.59-10.44-13.41-10.44
		c-6.75,0-12.24,2.16-16.11,6.84l-6.12-5.31c4.86-6.03,13.23-9.54,23.04-9.54c13.14,0,21.6,6.75,21.6,17.55
		c0,6.12-1.8,11.61-10.35,19.8l-19.26,18.54H293.02z"/>
	<path class="st4" d="M343.51,175.18c0,10.62-7.83,19.26-23.85,19.26c-9,0-17.82-2.88-23.13-7.65l4.14-7.11
		c4.23,3.96,11.25,6.75,18.99,6.75c9.45,0,14.85-4.32,14.85-11.16c0-6.66-4.77-10.98-15.57-10.98h-5.04V158l15.84-19.44h-30.33
		v-7.83h41.58v6.12l-16.47,20.34C337.12,158.35,343.51,165.46,343.51,175.18z"/>
</g>
<g>
	<rect x="125" y="126.94" class="st3" width="217.09" height="75.82"/>
	<path class="st5" d="M173.6,185.89v7.83h-45.27v-6.12l25.65-24.75c6.66-6.48,7.92-10.44,7.92-14.4c0-6.48-4.59-10.44-13.41-10.44
		c-6.75,0-12.24,2.16-16.11,6.84l-6.12-5.31c4.86-6.03,13.23-9.54,23.04-9.54c13.14,0,21.6,6.75,21.6,17.55
		c0,6.12-1.8,11.61-10.35,19.8l-19.26,18.54H173.6z"/>
	<path class="st5" d="M180.71,162.23c0-20.52,10.98-32.22,25.74-32.22c14.67,0,25.65,11.7,25.65,32.22
		c0,20.52-10.98,32.22-25.65,32.22C191.69,194.44,180.71,182.74,180.71,162.23z M223.1,162.23c0-16.11-6.84-24.21-16.65-24.21
		c-9.9,0-16.74,8.1-16.74,24.21c0,16.11,6.84,24.21,16.74,24.21C216.26,186.43,223.1,178.33,223.1,162.23z"/>
	<path class="st5" d="M284.75,185.89v7.83h-45.27v-6.12l25.65-24.75c6.66-6.48,7.92-10.44,7.92-14.4c0-6.48-4.59-10.44-13.41-10.44
		c-6.75,0-12.24,2.16-16.11,6.84l-6.12-5.31c4.86-6.03,13.23-9.54,23.04-9.54c13.14,0,21.6,6.75,21.6,17.55
		c0,6.12-1.8,11.61-10.35,19.8l-19.26,18.54H284.75z"/>
	<path class="st5" d="M335.24,175.18c0,10.62-7.83,19.26-23.85,19.26c-9,0-17.82-2.88-23.13-7.65l4.14-7.11
		c4.23,3.96,11.25,6.75,18.99,6.75c9.45,0,14.85-4.32,14.85-11.16c0-6.66-4.77-10.98-15.57-10.98h-5.04V158l15.84-19.44h-30.33
		v-7.83h41.58v6.12l-16.47,20.34C328.85,158.35,335.24,165.46,335.24,175.18z"/>
</g>
<g>
	<rect x="117.64" y="126.94" class="st3" width="217.09" height="75.82"/>
	<path class="st6" d="M166.24,185.89v7.83h-45.27v-6.12l25.65-24.75c6.66-6.48,7.92-10.44,7.92-14.4c0-6.48-4.59-10.44-13.41-10.44
		c-6.75,0-12.24,2.16-16.11,6.84l-6.12-5.31c4.86-6.03,13.23-9.54,23.04-9.54c13.14,0,21.6,6.75,21.6,17.55
		c0,6.12-1.8,11.61-10.35,19.8l-19.26,18.54H166.24z"/>
	<path class="st6" d="M173.35,162.23c0-20.52,10.98-32.22,25.74-32.22c14.67,0,25.65,11.7,25.65,32.22
		c0,20.52-10.98,32.22-25.65,32.22C184.33,194.44,173.35,182.74,173.35,162.23z M215.74,162.23c0-16.11-6.84-24.21-16.65-24.21
		c-9.9,0-16.74,8.1-16.74,24.21c0,16.11,6.84,24.21,16.74,24.21C208.9,186.43,215.74,178.33,215.74,162.23z"/>
	<path class="st6" d="M277.39,185.89v7.83h-45.27v-6.12l25.65-24.75c6.66-6.48,7.92-10.44,7.92-14.4c0-6.48-4.59-10.44-13.41-10.44
		c-6.75,0-12.24,2.16-16.11,6.84l-6.12-5.31c4.86-6.03,13.23-9.54,23.04-9.54c13.14,0,21.6,6.75,21.6,17.55
		c0,6.12-1.8,11.61-10.35,19.8l-19.26,18.54H277.39z"/>
	<path class="st6" d="M327.87,175.18c0,10.62-7.83,19.26-23.85,19.26c-9,0-17.82-2.88-23.13-7.65l4.14-7.11
		c4.23,3.96,11.25,6.75,18.99,6.75c9.45,0,14.85-4.32,14.85-11.16c0-6.66-4.77-10.98-15.57-10.98h-5.04V158l15.84-19.44h-30.33
		v-7.83h41.58v6.12l-16.47,20.34C321.48,158.35,327.87,165.46,327.87,175.18z"/>
</g>
<g>
</g>
<g>
</g>
<g>
</g>
<g>
</g>
<g>
</g>
<g>
</g>
</svg>
